# xmcd
#
# Track frame offsets:
#	150
#	13700
#	26222
#	41040
#	51302
#	65410
#	77565
#	88217
#	100562
#	112862
#	125967
#	138880
#	154045
#	168400
#
# Disc length: 2398 seconds
#
# Revision: 0
# Processed by: cddbd v1.5.1PL0 Copyright (c) Steve Scherf et al.
# Submitted via: dBpowerAMP V4.0
#
DISCID=b6095c0e
DTITLE=Merle Haggard - The Country Collection
DYEAR=1991
DGENRE=Country
TTITLE0=Cherokee Maiden
TTITLE1=Roots Of My raising
TTITLE2=It's All In The Movies
TTITLE3=Movin' On
TTITLE4=Always Wanting Yoy
TTITLE5=Kentucky Gambler
TTITLE6=Old Man From The Mountain
TTITLE7=Things Aren't Funny Anymore
TTITLE8=If We Make It Through December
TTITLE9=Everybody's Had The Blues
TTITLE10=I Wonder If They Ever Think Of Me
TTITLE11=It's Not Love (But It's Not Bad)
TTITLE12=Grandma Harp
TTITLE13=Carolyn
EXTD=Knight Records Ltd 1991  KNCD 13058
EXTT0=
EXTT1=
EXTT2=
EXTT3=
EXTT4=
EXTT5=
EXTT6=
EXTT7=
EXTT8=
EXTT9=
EXTT10=
EXTT11=
EXTT12=
EXTT13=
PLAYORDER=
